<svg xmlns="http://www.w3.org/2000/svg" width="400" height="200" viewBox="0 0 400 200">
  <defs>
    <linearGradient id="cardGrad" x1="0%" y1="0%" x2="100%" y2="100%">
      <stop offset="0%" style="stop-color:#ffffff;stop-opacity:1" />
      <stop offset="100%" style="stop-color:#f8f9fa;stop-opacity:1" />
    </linearGradient>
    <filter id="shadow" x="-20%" y="-20%" width="140%" height="140%">
      <feGaussianBlur in="SourceAlpha" stdDeviation="3"/>
      <feOffset dx="2" dy="2" result="offsetblur"/>
      <feComponentTransfer>
        <feFuncA type="linear" slope="0.2"/>
      </feComponentTransfer>
      <feMerge>
        <feMergeNode/>
        <feMergeNode in="SourceGraphic"/>
      </feMerge>
    </filter>

    <!-- Définition du logo PiBot en SVG -->
    <symbol id="pibotLogo" viewBox="0 0 277 100">
      <path d="M0 0 C1.49926 0.25741 3.028809 0.52002 C27.543435 4.829818 57.048897 11.571618 74.003906 31.335938 C77.907131 36.932673 78.940727 42.042562 78.566406 48.828125 C76.971301 57.760715 71.229501 63.491456 64.21875 68.84375 C45.143945 81.622017 22.346237 87.16335 0 91 C-1.381311 91.247742 -1.381311 91.247742 -2.790527 91.500488 C-34.426836 96.927544 -70.423472 96.663332 -102 91 C-102.999507 90.828394 -103.999014 90.656787 -105.028809 90.47998 C-129.543435 86.170182 -159.048897 79.428382 -176.003906 59.664062 C-179.907131 54.067327 -180.940727 48.957438 -180.566406 42.171875 C-178.971301 33.239285 -173.229501 27.508544 -166.21875 22.15625 C-147.143945 9.377983 -124.346237 3.83665 -102 0 C-100.618689 -0.247742 -100.618689 -0.247742 -99.209473 -0.500488 C-67.573164 -5.927544 -31.576528 -5.663332 0 0 Z" fill="#242424"/>
      <path d="M0 0 C3.691875 -0.103125 7.38375 -0.20625 11.1875 -0.3125 C12.920363 -0.38078 12.920363 -0.38078 14.688232 -0.450439 C22.240827 -0.552796 22.240827 -0.552796 26.21875 2.34375 C28.16098 5.240058 28.487135 6.590058 28 10 C27.01 10.33 26.02 10.66 25 11 C25.573449 13.867247 25.861452 14.861452 28 17 C28.4375 20.375 28.4375 20.375 28 24 C25.766999 26.75956 23.973169 27.88024 20.432861 28.315918 C17.338857 28.394208 14.28144 28.347528 11.1875 28.25 C7.495625 28.1675 3.80375 28.085 0 28 C0 18.76 0 9.52 0 0 Z" fill="#C9C9C9"/>
      <path d="M0 0 C3.526875 -0.0825 7.05375 -0.165 10.6875 -0.25 C11.790535 -0.286416 12.893569 -0.322832 14.030029 -0.360352 C18.34139 -0.40925 21.276425 -0.367587 25.167969 1.609375 C27.552939 4.721532 27.669683 6.603644 27.625 10.5 C27.637891 11.624063 27.650781 12.748125 27.664062 13.90625 C27 17 27 17 24.949219 19.390625 C21.279083 21.393401 18.248742 21.452091 14.1875 21.25 C13.494629 21.231953 12.801758 21.213906 12.087891 21.195312 C10.391323 21.148511 8.695475 21.076776 7 21 C7 22.65 7 24.3 7 26 C4.352611 27.460629 3.105517 28 0 28 C0 18.76 0 9.52 0 0 Z" fill="#C4C4C4"/>
      <path d="M0 0 C2.968796 1.45607 4.54724 3.030042 6 6 C7.081906 10.987906 6.74749 14.665196 4.25 19.125 C-0.739985 22.003837 -5.384998 21.922908 -11 21 C-14.25 19.1875 -14.25 19.1875 -16 16 C-16.938006 10.697884 -16.873616 6.536358 -14.1875 1.8125 C-9.45566 -0.878154 -5.307435 -1.063039 0 0 Z" fill="#C4C4C4"/>
      <path d="M0 0 C2.64 0 5.28 0 8 0 C8 5.94 8 11.88 8 18 C2 20 2 20 0 20 C0 13.4 0 6.8 0 0 Z" fill="#BEBEBE"/>
      <path d="M0 0 C1.423125 0.402187 1.423125 0.402187 2.875 0.8125 C4.051732 3.165964 4.041239 4.693103 4.0625 7.3125 C4.07668 8.106562 4.090859 8.900625 4.105469 9.71875 C3.875 11.8125 3.875 11.8125 1.875 13.8125 C-1.125 14.0625 -1.125 14.0625 -4.125 13.8125 C-6.539869 11.397631 -6.421193 10.685422 -6.4375 7.375 C-6.454258 6.592539 -6.471016 5.685078 -6.488281 5.003906 C-5.801592 0.861621 -4.079911 -0.244795 0 0 Z" fill="#A7A7A7"/>
      <path d="M0 0 C1.392188 0.340312 1.392188 0.340312 2.8125 0.6875 C3.819524 5.722619 3.786378 8.92697 1.8125 13.6875 C-1.0625 13.8125 -1.0625 13.8125 -4.1875 13.6875 C-6.602369 11.272631 -6.483693 10.560422 -6.5 7.25 C-6.516758 6.467539 -6.533516 5.685078 -6.550781 4.878906 C-6.1875 2.6875 -6.1875 2.6875 -4.867188 0.882812 C-3.1875 -0.3125 -3.1875 -0.3125 0 0 Z" fill="#B1B1B1"/>
      <path d="M0 0 C3.297148 0.329715 4.622684 0.622684 7 3 C7 3.99 7 4.98 7 6 C5.68 6 4.36 6 3 6 C3 5.34 3 4.68 3 4 C2.34 4 1.68 4 1 4 C2.978739 7.534668 2.978739 7.534668 5.6875 10.5 C7 12 7 12 7.3125 14.5625 C7 17 7 17 5 19 C2 19.3125 2 19.3125 -1 19 C-3 16 -3 16 -3 13 C-2.01 13 -1.02 13 0 13 C0.33 13.66 0.66 14.32 1 15 C1.66 15 2.32 15 3 15 C2.204252 11.793887 2.204252 11.793887 -0.625 9.625 C-3 7 -3 7 -2.9375 4.3125 C-2 2 -2 2 0 0 Z" fill="#BBBBBB"/>
      <path d="M0 0 C2.5 0.25 2.5 0.25 4.5 2.25 C4.765625 4.5625 4.765625 4.5625 4.75 7.25 C4.755156 8.136875 4.760312 9.02375 4.765625 9.9375 C4.5 12.25 4.5 12.25 2.5 14.25 C0 14.5 0 14.5 -2.5 14.25 C-4.5 12.25 -4.5 12.25 -4.765625 9.9375 C-4.760469 9.050625 -4.755313 8.16375 -4.75 7.25 C-4.755156 6.363125 -4.760312 5.47625 -4.765625 4.5625 C-4.376624 1.175899 -3.360115 0.336011 0 0 Z" fill="#B5B5B5"/>
      <path d="M0 0 C2.5 0.25 2.5 0.25 4.5 2.25 C4.765625 4.5625 4.765625 4.5625 4.75 7.25 C4.755156 8.136875 4.760312 9.02375 4.765625 9.9375 C4.5 12.25 4.5 12.25 2.5 14.25 C0 14.5 0 14.5 -2.5 14.25 C-4.5 12.25 -4.5 12.25 -4.765625 9.9375 C-4.760469 9.050625 -4.755313 8.16375 -4.75 7.25 C-4.755156 6.363125 -4.760312 5.47625 -4.765625 4.5625 C-4.376624 1.175899 -3.360115 0.336011 0 0 Z" fill="#AFAFAF"/>
      <path d="M0 0 C2.97 0 5.94 0 9 0 C9 0.99 9 1.98 9 3 C3.656978 3.527415 3.656978 3.527415 5.6875 5.3125 C9.286672 7.689814 9.286672 7.689814 13.5 7.65625 C6.259787 7.809452 0.961100 7.975684 0.961100 7.975684 0 8 C0 2.677437 0.268213 0.767482 0 0 Z" fill="#BBBBBB"/>
      <path d="M0 0 C1.454063 0.030937 1.454063 0.030937 2.9375 0.0625 C2.9375 1.3825 2.9375 2.7025 2.9375 4.0625 C1.9475 4.0625 0.9575 4.0625 -0.0625 4.0625 C-0.0625 7.3625 -0.0625 10.6625 -0.0625 14.0625 C-1.3825 14.0625 -2.7025 14.0625 -4.0625 14.0625 C-4.089359 11.916734 -4.108831 9.770874 -4.125 7.625 C-4.136602 6.430039 -4.148203 5.235078 -4.160156 4.003906 C-4.029955 0.082244 -4.029955 0.082244 0 0 Z" fill="#2B2B2B"/>
      <path d="M0 0 C0.99 0 1.98 0 3 0 C3 0.99 3 1.98 3 3 C3.66 3 4.32 3 5 3 C5 3.99 5 4.98 5 6 C4.34 6 3.68 6 3 6 C3.743597 11.550533 3.743597 11.550533 5 17 C3.35 16.67 1.7 16.34 0 16 C-0.195045 13.896519 -0.380785 11.792174 -0.5625 9.6875 C-0.666914 8.515742 -0.771328 7.343984 -0.878906 6.136719 C-1 3 -1 3 0 0 Z" fill="#C0C0C0"/>
    </symbol>

  </defs>

  <rect width="400" height="200" rx="10" fill="url(#cardGrad)" filter="url(#shadow)"/>
  <rect x="20" y="20" width="360" height="120" rx="5" fill="white" stroke="#eee" stroke-width="1"/>

  <!-- Utilisation du logo PIBOT SVG  -->
  <use x="55" y="25" width="277" height="100" href="#pibotLogo" />

  <g transform="translate(280,40)">
    <circle cx="0" cy="0" r="22" fill="#FFD700" filter="url(#shadow)"/>
    <text x="0" y="8" text-anchor="middle" fill="white" font-family="Arial" font-size="24">🥇</text>
    
    <circle cx="50" cy="0" r="22" fill="#9CA3AF" filter="url(#shadow)"/>
    <text x="50" y="8" text-anchor="middle" fill="white" font-family="Arial" font-size="22">🥈🛠️</text>
  </g>

  <text x="200" y="155" text-anchor="middle" font-family="Arial" font-weight="bold" font-size="14">
    <tspan fill="#FFD700">GOLD SPONSOR</tspan>
  </text>
  <text x="200" y="175" text-anchor="middle" font-family="Arial" font-weight="bold" font-size="14">
    <tspan fill="#9CA3AF">SILVER HARDWARE PARTNER</tspan>
  </text>
</svg>
