<?xml version="1.0" encoding="UTF-8"?>
<!-- Generator: visioncortex VTracer 0.6.4 -->
<svg version="1.1" xmlns="http://www.w3.org/2000/svg" width="277" height="100">
<path d="M0 0 C91.41 0 182.82 0 277 0 C277 33 277 66 277 100 C185.59 100 94.18 100 0 100 C0 67 0 34 0 0 Z " fill="#262626" transform="translate(0,0)"/>
<path d="M0 0 C91.41 0 182.82 0 277 0 C277 33 277 66 277 100 C185.59 100 94.18 100 0 100 C0 67 0 34 0 0 Z M83.031006 4.553711 C80.20641 5.174382 77.377326 5.418624 74.5 5.6875 C67.166948 6.61809 60.180453 8.399001 53.0625 10.375 C51.996445 10.667214 50.930391 10.959429 49.832031 11.260498 C43.818638 12.977733 38.505473 15.038864 33 18 C31.88625 18.45375 30.7725 18.9075 29.625 19.375 C18.159443 24.514733 6.892512 31.750805 1.785156 43.667969 C-0.15541 49.431741 0.780895 53.046369 3.375 58.375 C8.724274 67.537992 16.624359 73.385554 26 78 C26.710273 78.395742 27.420547 78.791484 28.152344 79.199219 C45.285681 88.483437 65.453996 92.717279 84.683594 94.605469 C88 95 88 95 90 96 C117.203524 100.204558 150.114043 100.827781 176.968994 94.446289 C179.79359 93.825618 182.622674 93.581376 185.5 93.3125 C192.833052 92.38191 199.819547 90.600999 206.9375 88.625 C208.003555 88.332786 209.069609 88.040571 210.167969 87.739502 C216.181362 86.022267 221.494527 83.961136 227 81 C228.11375 80.54625 229.2275 80.0925 230.375 79.625 C241.849665 74.481185 253.087452 67.247879 258.21875 55.335938 C260.061186 49.827053 259.273598 46.153385 256.9375 41 C251.859493 31.573502 243.537566 25.488266 234 21 C233.351602 20.64293 232.703203 20.285859 232.035156 19.917969 C214.767921 10.620227 194.681997 6.296074 175.316406 4.394531 C172 4 172 4 170 3 C142.796476 -1.204558 109.885957 -1.827781 83.031006 4.553711 Z " fill="#FDFDFD" transform="translate(0,0)"/>
<path d="M0 0 C3.691875 -0.103125 7.38375 -0.20625 11.1875 -0.3125 C12.920363 -0.38078 12.920363 -0.38078 14.688232 -0.450439 C22.240827 -0.552796 22.240827 -0.552796 26.21875 2.34375 C28.16098 5.240058 28.487135 6.590058 28 10 C27.01 10.33 26.02 10.66 25 11 C25.573449 13.867247 25.861452 14.861452 28 17 C28.4375 20.375 28.4375 20.375 28 24 C25.766999 26.75956 23.973169 27.88024 20.432861 28.315918 C17.338857 28.394208 14.28144 28.347528 11.1875 28.25 C7.495625 28.1675 3.80375 28.085 0 28 C0 18.76 0 9.52 0 0 Z " fill="#C9C9C9" transform="translate(96,20)"/>
<path d="M0 0 C3.526875 -0.0825 7.05375 -0.165 10.6875 -0.25 C11.790535 -0.286416 12.893569 -0.322832 14.030029 -0.360352 C18.34139 -0.40925 21.276425 -0.367587 25.167969 1.609375 C27.552939 4.721532 27.669683 6.603644 27.625 10.5 C27.637891 11.624063 27.650781 12.748125 27.664062 13.90625 C27 17 27 17 24.949219 19.390625 C21.279083 21.393401 18.248742 21.452091 14.1875 21.25 C13.494629 21.231953 12.801758 21.213906 12.087891 21.195312 C10.391323 21.148511 8.695475 21.076776 7 21 C7 22.65 7 24.3 7 26 C4.352611 27.460629 3.105517 28 0 28 C0 18.76 0 9.52 0 0 Z " fill="#C4C4C4" transform="translate(51,20)"/>
<path d="M0 0 C2.968796 1.45607 4.54724 3.030042 6 6 C7.081906 10.987906 6.74749 14.665196 4.25 19.125 C-0.739985 22.003837 -5.384998 21.922908 -11 21 C-14.25 19.1875 -14.25 19.1875 -16 16 C-16.938006 10.697884 -16.873616 6.536358 -14.1875 1.8125 C-9.45566 -0.878154 -5.307435 -1.063039 0 0 Z " fill="#C4C4C4" transform="translate(146,27)"/>
<path d="M0 0 C2.64 0 5.28 0 8 0 C8 1.32 8 2.64 8 4 C10.97 4 13.94 4 17 4 C16.125 8.875 16.125 8.875 15 10 C12.667026 10.040929 10.332948 10.042417 8 10 C8.33 13.3 8.66 16.6 9 20 C9.66 18.68 10.32 17.36 11 16 C12.98 16 14.96 16 17 16 C17.366086 21.491284 17.366086 21.491284 15.796875 23.671875 C12.326601 26.23686 8.103851 25.564196 4 25 C1.375 23.6875 1.375 23.6875 0 21 C-0.308114 17.307943 -0.22933 13.694762 0 10 C-0.66 10 -1.32 10 -2 10 C-2 8.02 -2 6.04 -2 4 C-1.34 4 -0.68 4 0 4 C0 2.68 0 1.36 0 0 Z " fill="#BEBEBE" transform="translate(159,23)"/>
<path d="M0 0 C2.64 0 5.28 0 8 0 C8 5.94 8 11.88 8 18 C2 20 2 20 0 20 C0 13.4 0 6.8 0 0 Z " fill="#BEBEBE" transform="translate(83,28)"/>
<path d="M0 0 C1.423125 0.402187 1.423125 0.402187 2.875 0.8125 C4.051732 3.165964 4.041239 4.693103 4.0625 7.3125 C4.07668 8.106562 4.090859 8.900625 4.105469 9.71875 C3.875 11.8125 3.875 11.8125 1.875 13.8125 C-1.125 14.0625 -1.125 14.0625 -4.125 13.8125 C-6.539869 11.397631 -6.421193 10.685422 -6.4375 7.375 C-6.454258 6.592539 -6.471016 5.810078 -6.488281 5.003906 C-5.801592 0.861621 -4.079911 -0.244795 0 0 Z " fill="#A7A7A7" transform="translate(115.125,66.1875)"/>
<path d="M0 0 C1.392188 0.340312 1.392188 0.340312 2.8125 0.6875 C3.819524 5.722619 3.786378 8.92697 1.8125 13.6875 C-1.0625 13.8125 -1.0625 13.8125 -4.1875 13.6875 C-6.602369 11.272631 -6.483693 10.560422 -6.5 7.25 C-6.516758 6.467539 -6.533516 5.685078 -6.550781 4.878906 C-6.1875 2.6875 -6.1875 2.6875 -4.867188 0.882812 C-3.1875 -0.3125 -3.1875 -0.3125 0 0 Z " fill="#B1B1B1" transform="translate(74.1875,66.3125)"/>
<path d="M0 0 C3.297148 0.329715 4.622684 0.622684 7 3 C7 3.99 7 4.98 7 6 C5.68 6 4.36 6 3 6 C3 5.34 3 4.68 3 4 C2.34 4 1.68 4 1 4 C2.978739 7.534668 2.978739 7.534668 5.6875 10.5 C7 12 7 12 7.3125 14.5625 C7 17 7 17 5 19 C2 19.3125 2 19.3125 -1 19 C-3 16 -3 16 -3 13 C-2.01 13 -1.02 13 0 13 C0.33 13.66 0.66 14.32 1 15 C1.66 15 2.32 15 3 15 C2.204252 11.793887 2.204252 11.793887 -0.625 9.625 C-3 7 -3 7 -2.9375 4.3125 C-2 2 -2 2 0 0 Z " fill="#BBBBBB" transform="translate(172,61)"/>
<path d="M0 0 C2.5 0.25 2.5 0.25 4.5 2.25 C4.765625 4.5625 4.765625 4.5625 4.75 7.25 C4.755156 8.136875 4.760312 9.02375 4.765625 9.9375 C4.5 12.25 4.5 12.25 2.5 14.25 C0 14.5 0 14.5 -2.5 14.25 C-4.5 12.25 -4.5 12.25 -4.765625 9.9375 C-4.760469 9.050625 -4.755313 8.16375 -4.75 7.25 C-4.755156 6.363125 -4.760312 5.47625 -4.765625 4.5625 C-4.376624 1.175899 -3.360115 0.336011 0 0 Z " fill="#B5B5B5" transform="translate(215.5,65.75)"/>
<path d="M0 0 C2.5 0.25 2.5 0.25 4.5 2.25 C4.765625 4.5625 4.765625 4.5625 4.75 7.25 C4.755156 8.136875 4.760312 9.02375 4.765625 9.9375 C4.5 12.25 4.5 12.25 2.5 14.25 C0 14.5 0 14.5 -2.5 14.25 C-4.5 12.25 -4.5 12.25 -4.765625 9.9375 C-4.760469 9.050625 -4.755313 8.16375 -4.75 7.25 C-4.755156 6.363125 -4.760312 5.47625 -4.765625 4.5625 C-4.376624 1.175899 -3.360115 0.336011 0 0 Z " fill="#AFAFAF" transform="translate(194.5,65.75)"/>
<path d="M0 0 C2.97 0 5.94 0 9 0 C9 0.99 9 1.98 9 3 C7.02 3 5.04 3 3 3 C3 4.65 3 6.3 3 8 C3.99 8 4.98 8 6 8 C6 8.99 6 9.98 6 11 C5.01 11 4.02 11 3 11 C3 12.65 3 14.3 3 16 C4.98 16 6.96 16 9 16 C9 16.99 9 17.98 9 19 C6.03 19 3.06 19 0 19 C0 12.73 0 6.46 0 0 Z " fill="#ADADAD" transform="translate(51,61)"/>
<path d="M0 0 C3.1875 0.375 3.1875 0.375 5.625 2.5625 C7.1875 5.375 7.1875 5.375 7.125 8 C6.094878 10.609641 5.538051 11.834984 3.1875 13.375 C0 13.5625 0 13.5625 -2.8125 13.375 C-1.4925 12.715 -0.1725 12.055 1.1875 11.375 C0.8575 10.385 0.5275 9.395 0.1875 8.375 C-0.8025 9.86 -0.8025 9.86 -1.8125 11.375 C-2.4725 9.065 -3.1325 6.755 -3.8125 4.375 C-4.8025 4.87 -4.8025 4.87 -5.8125 5.375 C-3.43319 0.457759 -3.43319 0.457759 0 0 Z " fill="#525252" transform="translate(187.8125,12.625)"/>
<path d="M0 0 C3.125 0.375 3.125 0.375 6 1 C6.33 2.32 6.66 3.64 7 5 C5.68 4.67 4.36 4.34 3 4 C3.680625 4.556875 4.36125 5.11375 5.0625 5.6875 C7 8 7 8 6.8125 10.6875 C6 13 6 13 5 14 C2.660553 13.712699 0.326086 13.380632 -2 13 C-2 12.01 -2 11.02 -2 10 C0.475 10.495 0.475 10.495 3 11 C3 10.34 3 9.68 3 9 C0.525 8.01 0.525 8.01 -2 7 C-2.125 4.625 -2.125 4.625 -2 2 C-1.34 1.34 -0.68 0.68 0 0 Z " fill="#B9B9B9" transform="translate(154,66)"/>
<path d="M0 0 C1.392188 0.340312 1.392188 0.340312 2.8125 0.6875 C3.1425 2.0075 3.4725 3.3275 3.8125 4.6875 C2.4925 4.6875 1.1725 4.6875 -0.1875 4.6875 C-0.1875 4.0275 -0.1875 3.3675 -0.1875 2.6875 C-1.1775 3.1825 -1.1775 3.1825 -2.1875 3.6875 C-2.1875 5.6675 -2.1875 7.6475 -2.1875 9.6875 C-1.5275 10.0175 -0.8675 10.3475 -0.1875 10.6875 C-0.1875 10.0275 -0.1875 9.3675 -0.1875 8.6875 C1.1325 8.6875 2.4525 8.6875 3.8125 8.6875 C2.9375 12.5625 2.9375 12.5625 1.8125 13.6875 C-1.125 13.875 -1.125 13.875 -4.1875 13.6875 C-6.602369 11.272631 -6.483693 10.560422 -6.5 7.25 C-6.516758 6.467539 -6.533516 5.685078 -6.550781 4.878906 C-6.1875 2.6875 -6.1875 2.6875 -4.867188 0.882812 C-3.1875 -0.3125 -3.1875 -0.3125 0 0 Z " fill="#B9B9B9" transform="translate(86.1875,66.3125)"/>
<path d="M0 0 C1 1 1 1 1.097656 3.503906 C1.086055 4.513242 1.074453 5.522578 1.0625 6.5625 C1.053477 7.574414 1.044453 8.586328 1.035156 9.628906 C1.023555 10.411367 1.011953 11.193828 1 12 C0.01 12 -0.98 12 -2 12 C-2.33 9.03 -2.66 6.06 -3 3 C-3.33 3 -3.66 3 -4 3 C-4.33 5.97 -4.66 8.94 -5 12 C-5.99 12 -6.98 12 -8 12 C-8 8.04 -8 4.08 -8 0 C-4.314749 -0.921313 -3.341887 -1.152375 0 0 Z " fill="#C6C6C6" transform="translate(130,67)"/>
<path d="M0 0 C1.812421 -0.026873 3.624952 -0.046337 5.4375 -0.0625 C6.446836 -0.074102 7.456172 -0.085703 8.496094 -0.097656 C11 0 11 0 12 1 C12.125 3.5 12.125 3.5 12 6 C11 7 11 7 8.496094 7.097656 C6.98209 7.080254 6.98209 7.080254 5.4375 7.0625 C4.425586 7.053477 3.413672 7.044453 2.371094 7.035156 C1.588633 7.023555 0.806172 7.011953 0 7 C0 4.69 0 2.38 0 0 Z " fill="#282828" transform="translate(59,27)"/>
<path d="M0 0 C0.763125 0.20625 1.52625 0.4125 2.3125 0.625 C2.6425 1.945 2.9725 3.265 3.3125 4.625 C2.3225 4.625 1.3325 4.625 0.3125 4.625 C0.3125 3.965 0.3125 3.305 0.3125 2.625 C-0.6775 3.12 -0.6775 3.12 -1.6875 3.625 C-1.6875 5.605 -1.6875 7.585 -1.6875 9.625 C-1.0275 9.955 -0.3675 10.285 0.3125 10.625 C0.3125 9.965 0.3125 9.305 0.3125 8.625 C1.3025 8.625 2.2925 8.625 3.3125 8.625 C2.9825 10.275 2.6525 11.925 2.3125 13.625 C-0.5625 13.75 -0.5625 13.75 -3.6875 13.625 C-6.207674 11.104826 -5.984804 10.110002 -6 6.625 C-6.016758 5.738125 -6.033516 4.85125 -6.050781 3.9375 C-5.930898 3.174375 -5.811016 2.41125 -5.6875 1.625 C-2.6875 -0.375 -2.6875 -0.375 0 0 Z " fill="#BCBCBC" transform="translate(145.6875,66.375)"/>
<path d="M0 0 C1.32 0.33 2.64 0.66 4 1 C4 6.94 4 12.88 4 19 C2.68 19 1.36 19 0 19 C0 12.73 0 6.46 0 0 Z " fill="#A1A1A1" transform="translate(62,61)"/>
<path d="M0 0 C0.66 0 1.32 0 2 0 C2 0.66 2 1.32 2 2 C2.99 2 3.98 2 5 2 C5.33 1.34 5.66 0.68 6 0 C6.66 0.33 7.32 0.66 8 1 C8 1.99 8 2.98 8 4 C10.475 4.99 10.475 4.99 13 6 C13 6.66 13 7.32 13 8 C10.69 7.67 8.38 7.34 6 7 C5.67 7.66 5.34 8.32 5 9 C5 8.01 5 7.02 5 6 C4.01 6 3.02 6 2 6 C2 6.66 2 7.32 2 8 C1.01 7.67 0.02 7.34 -1 7 C-1.042544 5.000453 -1.040808 2.999584 -1 1 C-0.67 0.67 -0.34 0.34 0 0 Z " fill="#3A3A3A" transform="translate(144,69)"/>
<path d="M0 0 C0.99 0 1.98 0 3 0 C3 0.99 3 1.98 3 3 C3.66 3 4.32 3 5 3 C4.916211 3.675469 4.832422 4.350938 4.746094 5.046875 C4.644258 5.938906 4.542422 6.830938 4.4375 7.75 C4.333086 8.631719 4.228672 9.513437 4.121094 10.421875 C4.005433 12.884325 4.263613 14.665381 5 17 C3.35 16.67 1.7 16.34 0 16 C-0.195045 13.896519 -0.380785 11.792174 -0.5625 9.6875 C-0.666914 8.515742 -0.771328 7.343984 -0.878906 6.136719 C-1 3 -1 3 0 0 Z " fill="#C0C0C0" transform="translate(182,63)"/>
<path d="M0 0 C1.454063 0.030937 1.454063 0.030937 2.9375 0.0625 C2.9375 1.3825 2.9375 2.7025 2.9375 4.0625 C1.9475 4.0625 0.9575 4.0625 -0.0625 4.0625 C-0.0625 7.3625 -0.0625 10.6625 -0.0625 14.0625 C-1.3825 14.0625 -2.7025 14.0625 -4.0625 14.0625 C-4.089359 11.916734 -4.108831 9.770874 -4.125 7.625 C-4.136602 6.430039 -4.148203 5.235078 -4.160156 4.003906 C-4.029955 0.082244 -4.029955 0.082244 0 0 Z " fill="#B1B1B1" transform="translate(104.0625,65.9375)"/>
<path d="M0 0 C0.99 0 1.98 0 3 0 C3 0.99 3 1.98 3 3 C3.66 3 4.32 3 5 3 C5 3.99 5 4.98 5 6 C4.34 6 3.68 6 3 6 C3.743597 11.550533 3.743597 11.550533 5 17 C3.35 16.67 1.7 16.34 0 16 C-0.195045 13.896519 -0.380785 11.792174 -0.5625 9.6875 C-0.666914 8.515742 -0.771328 7.343984 -0.878906 6.136719 C-1 3 -1 3 0 0 Z " fill="#C0C0C0" transform="translate(93,63)"/>
<path d="M0 0 C4.29 0 8.58 0 13 0 C12.67 1.65 12.34 3.3 12 5 C8.04 5 4.08 5 0 5 C0 3.35 0 1.7 0 0 Z " fill="#393939" transform="translate(103,37)"/>
<path d="M0 0 C3.96 0 7.92 0 12 0 C12.33 1.65 12.66 3.3 13 5 C8.71 5 4.42 5 0 5 C0 3.35 0 1.7 0 0 Z " fill="#333333" transform="translate(103,26)"/>
<path d="M0 0 C2.31 0 4.62 0 7 0 C6.625 1.9375 6.625 1.9375 6 4 C5.01 4.495 5.01 4.495 4 5 C3.533488 7.125768 3.533488 7.125768 3.375 9.5625 C3.300234 10.388789 3.225469 11.215078 3.148438 12.066406 C3.099453 12.704492 3.050469 13.342578 3 14 C2.01 14 1.02 14 0 14 C0 9.38 0 4.76 0 0 Z " fill="#BCBCBC" transform="translate(202,66)"/>
<path d="M0 0 C1.454062 0.030938 1.454062 0.030938 2.9375 0.0625 C2.9375 2.7025 2.9375 5.3425 2.9375 8.0625 C0.937953 8.105044 -1.062916 8.103308 -3.0625 8.0625 C-4.0625 7.0625 -4.0625 7.0625 -4.1875 4.0625 C-4.021649 0.082074 -4.021649 0.082074 0 0 Z " fill="#2B2B2B" transform="translate(141.0625,33.9375)"/>
<path d="M0 0 C2.31 0 4.62 0 7 0 C7 2.31 7 4.62 7 7 C4.69 7 2.38 7 0 7 C0 4.69 0 2.38 0 0 Z " fill="#BDBDBD" transform="translate(84,20)"/>
<path d="M0 0 C0.99 0 1.98 0 3 0 C3 4.62 3 9.24 3 14 C2.01 14 1.02 14 0 14 C0 9.38 0 4.76 0 0 Z " fill="#C4C4C4" transform="translate(134,66)"/>
<path d="M0 0 C0.33 2.31 0.66 4.62 1 7 C1.66 6.01 2.32 5.02 3 4 C3.66 5.65 4.32 7.3 5 9 C1.625 9.1875 1.625 9.1875 -2 9 C-4 6 -4 6 -4 2 C-1 0 -1 0 0 0 Z " fill="#3F3F3F" transform="translate(185,16)"/>
<path d="M0 0 C1.32 0 2.64 0 4 0 C4.309375 1.11375 4.61875 2.2275 4.9375 3.375 C5.823265 6.794515 5.823265 6.794515 7 9 C4.291207 10.354397 1.990667 10.065015 -1 10 C0.32 9.34 1.64 8.68 3 8 C2.67 7.01 2.34 6.02 2 5 C1.34 5.99 0.68 6.98 0 8 C0 5.36 0 2.72 0 0 Z " fill="#828282" transform="translate(186,16)"/>
</svg>
